<svg width="360" height="360" viewBox="0 0 360 360" xmlns="http://www.w3.org/2000/svg" role="img" aria-label="Celebration sticker">
  <defs>
    <linearGradient id="bg" x1="0" x2="1" y1="0" y2="1">
      <stop offset="0" stop-color="#ffe7f0"/>
      <stop offset="1" stop-color="#ffd6a8"/>
    </linearGradient>
    <linearGradient id="crown" x1="0" x2="1">
      <stop offset="0" stop-color="#ffd968"/>
      <stop offset="1" stop-color="#ff9e4f"/>
    </linearGradient>
    <filter id="shadow" x="-20%" y="-20%" width="140%" height="140%">
      <feDropShadow dx="0" dy="16" stdDeviation="12" flood-color="#b2476e" flood-opacity="0.22"/>
    </filter>
  </defs>
  <rect width="360" height="360" rx="44" fill="url(#bg)"/>
  <g opacity="0.72">
    <path d="M43 99c-12-16 15-32 26-11 12-20 38-4 25 13-11 13-25 21-25 21S52 112 43 99Z" fill="#ea4a86"/>
    <path d="M275 263c-11-15 14-30 24-10 11-19 36-4 23 12-10 13-23 21-23 21s-16-10-24-23Z" fill="#ef5d96"/>
    <circle cx="289" cy="99" r="8" fill="#5dcbd0"/>
    <circle cx="68" cy="259" r="7" fill="#ffb84d"/>
    <rect x="252" y="49" width="12" height="30" rx="6" transform="rotate(28 258 64)" fill="#7bd67b"/>
    <rect x="87" y="67" width="10" height="28" rx="5" transform="rotate(-24 92 81)" fill="#8fb3ff"/>
  </g>
  <g filter="url(#shadow)">
    <path d="M128 119l25-52 29 41 34-45 18 58Z" fill="url(#crown)" stroke="#f08440" stroke-width="7" stroke-linejoin="round"/>
    <circle cx="153" cy="68" r="8" fill="#fff4b8"/>
    <circle cx="216" cy="63" r="8" fill="#fff4b8"/>
    <path d="M93 202c-22-4-39-22-39-46 0-28 22-50 51-50 12 0 23 4 32 11 12-28 40-47 74-47 44 0 79 33 79 74v4c21 6 36 24 36 47 0 28-23 50-52 50H108c-5 0-10-1-15-2-2-13-2-27 0-41Z" fill="#fffaf8"/>
    <path d="M113 231c37 57 100 61 137 0" fill="#fffaf8"/>
    <ellipse cx="145" cy="168" rx="15" ry="18" fill="#232231"/>
    <ellipse cx="222" cy="168" rx="15" ry="18" fill="#232231"/>
    <circle cx="139" cy="161" r="5" fill="#fff"/>
    <circle cx="216" cy="161" r="5" fill="#fff"/>
    <path d="M163 203c18 18 43 18 61 0" fill="none" stroke="#232231" stroke-width="9" stroke-linecap="round"/>
    <circle cx="111" cy="189" r="15" fill="#ff9dbb" opacity="0.62"/>
    <circle cx="258" cy="188" r="15" fill="#ff9dbb" opacity="0.62"/>
    <rect x="82" y="236" width="56" height="61" rx="13" fill="#bfe8ff" stroke="#67a5da" stroke-width="6"/>
    <rect x="82" y="236" width="56" height="19" rx="11" fill="#ff7fa6"/>
    <line x1="97" y1="264" x2="124" y2="264" stroke="#357fb3" stroke-width="5" stroke-linecap="round"/>
    <line x1="97" y1="281" x2="119" y2="281" stroke="#357fb3" stroke-width="5" stroke-linecap="round"/>
    <path d="M258 229c25 12 31 43 16 67-7 11-22 3-16-9 8-17 3-34-12-42-12-6 0-22 12-16Z" fill="#ffc66d" stroke="#d77b3e" stroke-width="5"/>
    <path d="M241 229l22 15" stroke="#d77b3e" stroke-width="7" stroke-linecap="round"/>
  </g>
</svg>
