<svg width="360" height="360" viewBox="0 0 360 360" xmlns="http://www.w3.org/2000/svg" role="img" aria-label="Green jelly reaction sticker">
  <defs>
    <radialGradient id="bg" cx="50%" cy="35%" r="70%">
      <stop offset="0" stop-color="#ffe8f1"/>
      <stop offset="1" stop-color="#ffc5dc"/>
    </radialGradient>
    <radialGradient id="jelly" cx="35%" cy="25%" r="70%">
      <stop offset="0" stop-color="#d7ff84"/>
      <stop offset="0.45" stop-color="#9dea48"/>
      <stop offset="1" stop-color="#49b034"/>
    </radialGradient>
    <filter id="soft" x="-20%" y="-20%" width="140%" height="140%">
      <feDropShadow dx="0" dy="16" stdDeviation="12" flood-color="#b23565" flood-opacity="0.24"/>
    </filter>
  </defs>
  <rect width="360" height="360" rx="44" fill="url(#bg)"/>
  <g fill="#ec4c87" opacity="0.5">
    <path d="M53 82c-13-18 16-35 28-12 13-22 41-4 27 14-12 15-27 24-27 24S63 96 53 82Z"/>
    <path d="M282 258c-10-13 12-26 21-9 10-16 31-3 20 11-9 11-20 18-20 18s-14-9-21-20Z"/>
    <path d="M269 82c-7-10 8-19 15-7 7-12 22-2 14 8-6 8-14 13-14 13s-10-6-15-14Z"/>
    <circle cx="77" cy="251" r="9"/>
    <circle cx="303" cy="129" r="8"/>
  </g>
  <g filter="url(#soft)">
    <path d="M92 171c0-75 51-122 89-122 46 0 92 51 92 126 0 74-42 128-92 128-52 0-89-56-89-132Z" fill="url(#jelly)"/>
    <path d="M116 145c7-62 49-83 78-79 15 2 31 14 41 33-23-22-72-32-119 46Z" fill="#efffb7" opacity="0.55"/>
    <path d="M103 187c-24-8-34-31-23-48 16-24 45 10 36 34l-13 14Z" fill="#7fd943"/>
    <path d="M258 185c25-6 36-29 26-47-14-25-46 7-38 32l12 15Z" fill="#65c43b"/>
    <ellipse cx="140" cy="165" rx="24" ry="27" fill="#f9fff1"/>
    <ellipse cx="220" cy="165" rx="24" ry="27" fill="#f9fff1"/>
    <circle cx="144" cy="170" r="11" fill="#24311f"/>
    <circle cx="216" cy="170" r="11" fill="#24311f"/>
    <path d="M111 131c26-18 50 4 52 12" fill="none" stroke="#29421f" stroke-width="15" stroke-linecap="round"/>
    <path d="M248 131c-25-18-50 4-52 12" fill="none" stroke="#29421f" stroke-width="15" stroke-linecap="round"/>
    <path d="M151 222c22 14 45 14 67 0" fill="none" stroke="#27401f" stroke-width="13" stroke-linecap="round"/>
    <circle cx="118" cy="201" r="13" fill="#ff8fb2" opacity="0.55"/>
    <circle cx="243" cy="201" r="13" fill="#ff8fb2" opacity="0.55"/>
  </g>
</svg>
